/* XPM */
static char *_3e9161086be4954edf5c9553fcb4045[] = {
/* columns rows colors chars-per-pixel */
"128 128 67 1 ",
"  c #019A013E008F",
". c #088C069E028D",
"X c #0C4F09720381",
"o c #11D40DAB04FC",
"O c #165D11200629",
"+ c #1A6C143B0734",
"@ c #1CC9160E07DF",
"# c #1F5317FE0885",
"$ c #23CC1B6E09B3",
"% c #28831F010AEA",
"& c #225C1E821F5C",
"* c #2BE521B30BD2",
"= c #317C25E40D36",
"- c #356428E20E45",
"; c #39092BAA0F31",
": c #3BB82DB70FEC",
"> c #3F8930A210F1",
", c #445434481204",
"< c #4896378B133B",
"1 c #4CA33AAA1449",
"2 c #517C3E6A1591",
"3 c #55A9418D1691",
"4 c #58BE43E3174C",
"5 c #5C0E466D183A",
"6 c #5ED6488818EB",
"7 c #649B4D001A71",
"8 c #682D4FAB1B49",
"9 c #6BD0527B1C38",
"0 c #7110566D1D86",
"q c #754B59C51EB5",
"w c #78795C031F83",
"e c #7A8D5DF12018",
"r c #7F0E612E2134",
"t c #857F661422CF",
"y c #8C916B802489",
"u c #909A6E7F257C",
"i c #9502720F26CC",
"p c #989D74862792",
"a c #9A0875D7280C",
"s c #9ED27993294A",
"d c #A3A97D312A7C",
"f c #ABFB839D2C9B",
"g c #B109874B2DA8",
"h c #B57C8AD52EF2",
"j c #B9388D7B2F8D",
"k c #B7C98D092FB8",
"l c #BA748E98302C",
"z c #BDD49165311B",
"x c #C392959A327E",
"c c #C72198BE338F",
"v c #CC8A9C7634BD",
"b c #D14C9FD735DC",
"n c #D44BA26F36B8",
"m c #D7ABA57337BA",
"M c #DA44A6D73821",
"N c #DE48A9F23918",
"B c #E3D4AE583A94",
"V c #E765B11C3B76",
"C c #ECCDB5563CD4",
"Z c #F01FB8603DD4",
"A c #F690BC2B3EB6",
"S c #F98EBE713F6D",
"D c #F7D3BE7D3FCC",
"F c #FAC3BFA43FF3",
"G c #FF5EC50C41AC",
"H c #FFFFC9454314",
"J c None",
/* pixels */
"JJJJJJJJJJJJJJJJJJJJJJJJJJJJJJJJJJJJJJJJJJJJJJJJJJJJJJJJJJJJJJJJJJJJJJJJJJJJJJJJJJJJJJJJJJJJJJJJJJJJJJJJJJJJJJJJJJJJJJJJJJJJJJJJ",
"JJJJJJJJJJJJJJJJJJJJJJJJJJJJJJJJJJJJJJJJJJJJJJJJJJJJJJJJJJJJJJJJJJJJJJJJJJJJJJJJJJJJJJJJJJJJJJJJJJJJJJJJJJJJJJJJJJJJJJJJJJJJJJJJ",
"JJJJJJJJJJJJJJJJJJJJJJJJJJJJJJJJJJJJJJJJJJJJJJJJJJ  ....      Xo.JJJJJJJJJJJJJJJJJJJJJJJJJJJJJJJJJJJJJJJJJJJJJJJJJJJJJJJJJJJJJJJ",
"JJJJJJJJJJJJJJJJJJJJJJJJJJJJJJJJJJJJJJJJJJJJJJJJ:tdgkjllkkgggklxk7 JJJJJJJJJJJJJJJJJJJJJJJJJJJJJJJJJJJJJJJJJJJJJJJJJJJJJJJJJJJJJ",
"JJJJJJJJJJJJJJJJJJJJJJJJJJJJJJJJJJJJJJJJJJJJJJJ3GGGGGGGGGGGGGGGGGH5JJJJJJJJJJJJJJJJJJJJJJJJJJJJJJJJJJJJJJJJJJJJJJJJJJJJJJJJJJJJJ",
"JJJJJJJJJJJJJJJJJJJJJJJJJJJJJJJJJJJJJJJJJJJJJJ vGAAAAAAAAAAAAAAAAGkJJJJJJJJJJJJJJJJJJJJJJJJJJJJJJJJJJJJJJJJJJJJJJJJJJJJJJJJJJJJJ",
"JJJJJJJJJJJJJJJJJJJJJJJJJJJJJJJJJJJJJJJJJJJJJJ@CSAAAAAAAAAAAAAAAAGx JJJJJJJJJJJJJJJJJJJJJJJJJJJJJJJJJJJJJJJJJJJJJJJJJJJJJJJJJJJJ",
"JJJJJJJJJJJJJJJJJJJJJJJJJJJJJJJJJJJJJJJJJJJJJJ-DAAAAAAAAAAAAAAAAAGxJJJJJJJJJJJJJJJJJJJJJJJJJJJJJJJJJJJJJJJJJJJJJJJJJJJJJJJJJJJJJ",
"JJJJJJJJJJJJJJJJJJJJJJJJJJJJJJJJJJJJJJJJJJJJJJ<GAAAAAAAAAAAAAAAAAGlJJJJJJJJJJJJJJJJJJJJJJJJJJJJJJJJJJJJJJJJJJJJJJJJJJJJJJJJJJJJJ",
"JJJJJJJJJJJJJJJJJJJJJJJJJJJJJJJJJJJJJJJJJJJJJJ4GAAAAAAAAAAAAAAAAAGzJJJJJJJJJJJJJJJJJJJJJJJJJJJJJJJJJJJJJJJJJJJJJJJJJJJJJJJJJJJJJ",
"JJJJJJJJJJJJJJJJJJJJJJJJJJJJJJJJJJJJJJJJJJJJJJ7GAAAAAAAAAAAAAAAAAGv JJJJJJJJJJJJJJJJJJJJJJJJJJJJJJJJJJJJJJJJJJJJJJJJJJJJJJJJJJJJ",
"JJJJJJJJJJJJJJJJJJJJJJJJJJJJJJJJJJJJJJJJJJJJJJeGAAAAAAAAAAAAAAAAASNXJJJJJJJJJJJJJJJJJJJJJJJJJJJJJJJJJJJJJJJJJJJJJJJJJJJJJJJJJJJJ",
"JJJJJJJJJJJJJJJJJJJJJJJJJJJJJJJJJJJJJJJJJJJJJJsGAAAAAAAAAAAAAAAAAAZ%JJJJJJJJJJJJJJJJJJO0y1 JJJJJJJJJJJJJJJJJJJJJJJJJJJJJJJJJJJJJ",
"JJJJJJJJJJJJJJJJJJJJJJJX8dt%JJJJJJJJJJJJJJJJJ.nGAAAAAAAAAAAAAAAAAAG1JJJJJJJJJJJJJJJJJ;NHHGd.JJJJJJJJJJJJJJJJJJJJJJJJJJJJJJJJJJJJ",
"JJJJJJJJJJJJJJJJJJJJJJ*bHGGZ7JJJJJJJJJJJJJJJJ1GAAAAAAAAAAAAAAAAAAAGiJJJJJJJJJJJJJJJJ1CGAAAHkXJJJJJJJJJJJJJJJJJJJJJJJJJJJJJJJJJJJ",
"JJJJJJJJJJJJJJJJJJJJJ=BGAAAGGqJJJJJJJJJJJJJJ lGAAAAAAAAAAAAAAAAAAASC*JJJJJJJJJJJJJJ4AGAAAAAGkXJJJJJJJJJJJJJJJJJJJJJJJJJJJJJJJJJJ",
"JJJJJJJJJJJJJJJJJJJJ-VGAAAAAAGw JJJJJJJJJJJJqGAAAAAAAAAAAAAAAAAAAAAGxXJJJJJJJJJJJ eGFAAAAAAAGkXJJJJJJJJJJJJJJJJJJJJJJJJJJJJJJJJJ",
"JJJJJJJJJJJJJJJJJJJ:VGAAAAAAAAGt JJJJJJJJJJ6GAAAAAAAAAAAAAAAAAAAAAAAGx#JJJJJJJJJ.aGFAAAAAAAAAHzXJJJJJJJJJJJJJJJJJJJJJJJJJJJJJJJJ",
"JJJJJJJJJJJJJJJJJJ:CGAAAAAAAAASGfoJJJJJJJ rGSAAAAAAAAAAAAAAAAAAAAAAAAGVqOJJJJJJ=xGAAAAAAAAAAAAGkXJJJJJJJJJJJJJJJJJJJJJJJJJJJJJJJ",
"JJJJJJJJJJJJJJJJJ>CGAAAAAAAAAAAAGM1 JJJ ,vGAAAAAAAAAAAAAAAAAAAAAAAAAAZGGCge45elAGAAAAAAAAAAAAAAHkXJJJJJJJJJJJJJJJJJJJJJJJJJJJJJJ",
"JJJJJJJJJJJJJJJJ,ZSAAAAAAAAAAAAAAGGvueucGGAAAAAAAAAAAAAAAAAAAAAAAAAAAAAASGHGHGGAAAAAAAAAAAAAAAAAHk.JJJJJJJJJJJJJJJJJJJJJJJJJJJJJ",
"JJJJJJJJJJJJJJJ,ZGAAAAAAAAAAAAAAAAAGGGGGAAAAAAAAAAAAAAAAAAAAAAAAAAAAAAAAAAAAAAAAAAAAAAAAAAAAAAAAAHf.JJJJJJJJJJJJJJJJJJJJJJJJJJJJ",
"JJJJJJJJJJJJJJ1ZGAAAAAAAAAAAAAAAAAAAAAAAAAAAAAAAAAAAAAAAAAAAAAAAAAAAAAAAAAAAAAAAAAAAAAAAAAAAAAAAAAGf JJJJJJJJJJJJJJJJJJJJJJJJJJJ",
"JJJJJJJJJJJJJ1AFAAAAAAAAAAAAAAAAAAAAAAAAAAAAAAAAAAAAAAAAAAAAAAAAAAAAAAAAAAAAAAAAAAAAAAAAAAAAAAAAAZAHi JJJJJJJJJJJJJJJJJJJJJJJJJJ",
"JJJJJJJJJJJJ;ZGAAAAAAAAAAAAAAAAAAAAAAAAAAAAAAAAAAAAAAAAAAAAAAAAAAAAAAAAAAAAAAAAAAAAAAAAAAAAAAAAAAAASH3JJJJJJJJJJJJJJJJJJJJJJJJJJ",
"JJJJJJJJJJJ cGAAAAAAAAAAAAAAAAAAAAAAAAAAAAAAAAAAAAAAAAAAAAAAAAAAAAAAAAAAAAAAAAAAAAAAAAAAAAAAAAAAAAAAGfJJJJJJJJJJJJJJJJJJJJJJJJJJ",
"JJJJJJJJJJJ*DSAAAAAAAAAAAAAAAAAAAAAAAAAAAAAAAAAAAAAAAAAAAAAAAAAAAAAAAAAAAAAAAAAAAAAAAAAAAAAAAAAAAAAAGz JJJJJJJJJJJJJJJJJJJJJJJJJ",
"JJJJJJJJJJJ$AAAAAAAAAAAAAAAAAAAAAAAAAAAAAAAAAAAAAAAAAAAAAAAAAAAAAAAAAAAAAAAAAAAAAAAAAAAAAAAAAAAAAAAAHyJJJJJJJJJJJJJJJJJJJJJJJJJJ",
"JJJJJJJJJJJ fHAAAAAAAAAAAAAAAAAAAAAAAAAAAAAAAAAAAAAASSGGGGGGGFSAAAAAAAAAAAAAAAAAAAAAAAAAAAAAAAAAAAAGnOJJJJJJJJJJJJJJJJJJJJJJJJJJ",
"JJJJJJJJJJJJOvGAAAAAAAAAAAAAAAAAAAAAAAAAAAAAAAAAAGGGCnlfsdfkvVFGGSAAAAAAAAAAAAAAAAAAAAAAAAAAAAAAAAGm#JJJJJJJJJJJJJJJJJJJJJJJJJJJ",
"JJJJJJJJJJJJJOcGAAAAAAAAAAAAAAAAAAZAAAAAAAAAAAGGAxt,+. JJJJJ o=9fVGGAAAAAAAAAAAAAAAAAAAAAAAAAAAAAGV%JJJJJJJJJJJJJJJJJJJJJJJJJJJJ",
"JJJJJJJJJJJJJJoxGAAAAAAAAAAAAAAAAAAAAAAAAAAAGGMe% JJJJJJJJJJJJJJJo3gSGSAAAAAAAAAAAAAAAAAAAAAAAAAFZ,JJJJJJJJJJJJJJJJJJJJJJJJJJJJJ",
"JJJJJJJJJJJJJJJocGAAAAAAAAAAAAAAAAAAAAAAAAFGm7XJJJJJJJJJJJJJJJJJJJJJ=sAGAAAAAAAAAAAAAAAAAAAAAAZGZ1JJJJJJJJJJJJJJJJJJJJJJJJJJJJJJ",
"JJJJJJJJJJJJJJJJ@NGAAAAAAAAAAAAAAAAAAAAAAGZe.JJJJJJJJJJJJJJJJJJJJJJJJJ*kGGAAAAAAAAAAAAAAAAAAAAAG3JJJJJJJJJJJJJJJJJJJJJJJJJJJJJJJ",
"JJJJJJJJJJJJJJJJJ1GAAAAAAAAAAAAAAAAAAAAAGz*JJJJJJJJJJJJJJJJJJJJJJJJJJJJ 6CGAAAAAAAAAAAAAAAAAAAGiJJJJJJJJJJJJJJJJJJJJJJJJJJJJJJJJ",
"JJJJJJJJJJJJJJJJJ lGAAAAAAAAAAAAAAAAAAFGy JJJJJJJJJJJJJJJJJJJJJJJJJJJJJJJ$xHAAAAAAAAAAAAAAAAASV@JJJJJJJJJJJJJJJJJJJJJJJJJJJJJJJJ",
"JJJJJJJJJJJJJJJJJJ7GAAAAAAAAAAAAAAAAASF7JJJJJJJJJJJJJJJJJJJJJJJJJJJJJJJJJJ.sHAAAASAAAAAAAAAAAGdJJJJJJJJJJJJJJJJJJJJJJJJJJJJJJJJJ",
"JJJJJJJJJJJJJJJJJJ=SSAAAAAAAAAAAAAAAFA1JJJJJJJJJJJJJJJJJJJJJJJJJJJJJJJJJJJJ tGAAAAAAAAAAAAAAAH8JJJJJJJJJJJJJJJJJJJJJJJJJJJJJJJJJ",
"JJJJJJJJJJJJJJJJJJ@CSAAAAAAAAAAAAAASA1JJJJJJJJJJJJJJJJJJJJJJJJJJJJJJJJJJJJJJ yGAAAAAAAAAAAAAAG6JJJJJJJJJJJJJJJJJJJJJJJJJJJJJJJJJ",
"JJJJJJJJJJJJJJJJJJ+CSAAAAAAAAAAAAAAG5JJJJJJJJJJJJJJJJJJJJJJJJJJJJJJJJJJJJJJJJ pGAAAAAAAAAAAAAGeJJJJJJJJJJJJJJJJJJJJJJJJJJJJJJJJJ",
"JJJJJJJJJJJJJJJJJJ*AAAAAAAAAAAAAAAHrJJJJJJJJJJJJJJJJJJJJJJJJJJJJJJJJJJJJJJJJJJ.kGAAAAAAAAAAAAGx JJJJJJJJJJJJJJJJJJJJJJJJJJJJJJJJ",
"JJJJJJJJJJJJJJJJJJ1GAAAAAAAAAAAAAGg JJJJJJJJJJJJJJJJJJJJJJJJJJJJJJJJJJJJJJJJJJJ#BGAAAAAAAAAAAAG3JJJJJJJJJJJJJJJJJJJJJJJJJJJJJJJJ",
"JJJJJJJJJJJJJJJJJJyGAAAAAAAAAAAAGB#JJJJJJJJJJJJJJJJJJJJJJJJJJJJJJJJJJJJJJJJJJJJJ2GAAAAAAAAAAAAFNoJJJJJJJJJJJJJJJJJJJJJJJJJJJJJJJ",
"JJJJJJJJJJJJJJJJJ.nGAAAAAAAAAAAAG6JJJJJJJJJJJJJJJJJJJJJJJJJJJJJJJJJJJJJJJJJJJJJJ dGAAAAAAAAAAAAGd JJJJJJJJJJJJJJJJJJJJJJJJJJJJJJ",
"JJJJJJJJJJJJJJJJJ7GAAAAAAAAAAAAGz JJJJJJJJJJJJJJJJJJJJJJJJJJJJJJJJJJJJJJJJJJJJJJJ$CGAAAAAAAAAAAAHy JJJJJJJJJJJJJJJJJJJJJJJJJJJJJ",
"JJJJJJJJJJJJJJJJ,ZFAAAAAAAAAAASF>JJJJJJJJJJJJJJJJJJJJJJJJJJJJJJJJJJJJJJJJJJJJJJJJJtGAAAAAAAAAAAAAGfOJJJJJJJJJJJJJJJJJJJJJJJJJJJJ",
"JJJJJJJJJJJJJJX9ZFAAAAAAAAAAAAGg JJJJJJJJJJJJJJJJJJJJJJJJJJJJJJJJJJJJJJJJJJJJJJJJJ$CSAAAAAAAAAAAAAGBr=X  JJJJJJJJJJJJJJJJJJJJJJJ",
"JJJJ.$==--=:4iNGSAAAAAAAAAAAAAG,JJJJJJJJJJJJJJJJJJJJJJJJJJJJJJJJJJJJJJJJJJJJJJJJJJJaGAAAAAAAAAAAAAAGGFNbxlfu7%JJJJJJJJJJJJJJJJJJ",
"JJJ1bZFFFSFGGGFAAAAAAAAAAAAAAGv JJJJJJJJJJJJJJJJJJJJJJJJJJJJJJJJJJJJJJJJJJJJJJJJJJJ,FAAAAAAAAAAAAAAAAAFFGGGGGF8JJJJJJJJJJJJJJJJJ",
"JJ+CGASASAAAAAAAAAAAAAAAAAAAAGqJJJJJJJJJJJJJJJJJJJJJJJJJJJJJJJJJJJJJJJJJJJJJJJJJJJJ.nGAAAAAAAAAAAAAAAAAAAADADGBXJJJJJJJJJJJJJJJJ",
"J 2HAAAAAAAAAAAAAAAAAAAAAAAASZ*JJJJJJJJJJJJJJJJJJJJJJJJJJJJJJJJJJJJJJJJJJJJJJJJJJJJJuGAAAAAAAAAAAAAAAAAAAAAAAAF=JJJJJJJJJJJJJJJJ",
"J 4GAAAAAAAAAAAAAAAAAAAAAAAAGb JJJJJJJJJJJJJJJJJJJJJJJJJJJJJJJJJJJJJJJJJJJJJJJJJJJJJ1GAAAAAAAAAAAAAAAAAAAAAAAAG,JJJJJJJJJJJJJJJJ",
"J 2GAAAAAAAAAAAAAAAAAAAAAAAAGaJJJJJJJJJJJJJJJJJJJJJJJJJJJJJJJJJJJJJJJJJJJJJJJJJJJJJJ$ZSAAAAAAAAAAAAAAAAAAAAAAAG1JJJJJJJJJJJJJJJJ",
"J 1GAAAAAAAAAAAAAAAAAAAAAAAAG7JJJJJJJJJJJJJJJJJJJJJJJJJJJJJJJJJJJJJJJJJJJJJJJJJJJJJJ.nGAAAAAAAAAAAAAAAAAAAAAAAG1JJJJJJJJJJJJJJJJ",
"J <GAAAAAAAAAAAAAAAAAAAAAAAAG;JJJJJJJJJJJJJJJJJJJJJJJJJJJJJJJJJJJJJJJJJJJJJJJJJJJJJJJzGAAAAAAAAAAAAAAAAAAAAAAAH1JJJJJJJJJJJJJJJJ",
"J ,GAAAAAAAAAAAAAAAAAAAAAAASC$JJJJJJJJJJJJJJJJJJJJJJJJJJJJJJJJJJJJJJJJJJJJJJJJJJJJJJJdGAAAAAAAAAAAAAAAAAAAAAADG2JJJJJJJJJJJJJJJJ",
"J ,GAAAAAAAAAAAAAAAAAAAAAAAFVoJJJJJJJJJJJJJJJJJJJJJJJJJJJJJJJJJJJJJJJJJJJJJJJJJJJJJJJpGAAAAAAAAAAAAAAAAAAAAAAAG2JJJJJJJJJJJJJJJJ",
"J ,GAAAAAAAAAAAAAAAAAAAAAAAFNXJJJJJJJJJJJJJJJJJJJJJJJJJJJJJJJJJJJJJJJJJJJJJJJJJJJJJJJyHAAAAAAAAAAAAAAAAAAAAAAAG2JJJJJJJJJJJJJJJJ",
"J ,GAAAAAAAAAAAAAAAAAAAAAAAFBXJJJJJJJJJJJJJJJJJJJJJJJJJJJJJJJJJJJJJJJJJJJJJJJJJJJJJJJuGAAAAAAAAAAAAAAAAAAAAAAAG1JJJJJJJJJJJJJJJJ",
"J ,GAAAAAAAAAAAAAAAAAAAAAAAFVoJJJJJJJJJJJJJJJJJJJJJJJJJJJJJJJJJJJJJJJJJJJJJJJJJJJJJJJaGAAAAAAAAAAAAAAAAAAAAAAAG1JJJJJJJJJJJJJJJJ",
"J <GAAAAAAAAAAAAAAAAAAAAAAASZ$JJJJJJJJJJJJJJJJJJJJJJJJJJJJJJJJJJJJJJJJJJJJJJJJJJJJJJJdGAAAAAAAAAAAAAAAAAAAAAAAG1JJJJJJJJJJJJJJJJ",
"J 1GAAAAAAAAAAAAAAAAAAAAAAASS;JJJJJJJJJJJJJJJJJJJJJJJJJJJJJJJJJJJJJJJJJJJJJJJJJJJJJJJxGAAAAAAAAAAAAAAAAAAAAAADG1JJJJJJJJJJJJJJJJ",
"J 1GAAAAAAAAAAAAAAAAAAAAAAAAG7JJJJJJJJJJJJJJJJJJJJJJJJJJJJJJJJJJJJJJJJJJJJJJJJJJJJJJoNFAAAAAAAAAAAAAAAAAAAAAAAG1JJJJJJJJJJJJJJJJ",
"J 1GAAAAAAAAAAAAAAAAAAAAAAAAGaJJJJJJJJJJJJJJJJJJJJJJJJJJJJJJJJJJJJJJJJJJJJJJJJJJJJJJ%AFAAAAAAAAAAAAAAAAAAAAAAAG2JJJJJJJJJJJJJJJJ",
"J 1GAAAAAAAAAAAAAAAAAAAAAAAAGb JJJJJJJJJJJJJJJJJJJJJJJJJJJJJJJJJJJJJJJJJJJJJJJJJJJJJ4GAAAAAAAAAAAAAAAAAAAAAAAAG3JJJJJJJJJJJJJJJJ",
"J 1GAAAAAAAAAAAAAAAAAAAAAAAAAS*JJJJJJJJJJJJJJJJJJJJJJJJJJJJJJJJJJJJJJJJJJJJJJJJJJJJJsHAAAAAAAAAAAAAAAAAAASAAAAG1JJJJJJJJJJJJJJJJ",
"JJ*DAAAAAAAAAAAAAAAAAAAAAAAAAGwJJJJJJJJJJJJJJJJJJJJJJJJJJJJJJJJJJJJJJJJJJJJJJJJJJJJXNGAAAAAAAAAAAAAAAAASSSGSSGZ$JJJJJJJJJJJJJJJJ",
"JJ zHSAAAAAAAAAAAAAAAAAAAAAAAGv JJJJJJJJJJJJJJJJJJJJJJJJJJJJJJJJJJJJJJJJJJJJJJJJJJJ1GAAAAAAAAAAAAAAAGGAVNNNBVn4JJJJJJJJJJJJJJJJJ",
"JJJ#lFGGGGHGGHGAAAAAAAAAAAAAAAG<JJJJJJJJJJJJJJJJJJJJJJJJJJJJJJJJJJJJJJJJJJJJJJJJJJJfGAAAAAAAAAAAAAGCp2%ooXXoo.JJJJ&&JJJJJJJJJJJJ",
"JJJJ.=3799734tvGSAAAAAAAAAAAAAGk JJJJJJJJJJJJJJJJJJJJJJJJJJJJJJJJJJJJJJJJJJJJJJJJJ*ASAAAAAAAAAAAAGg$JJJJJJJJJJJJJJ&&&JJJJJJJJJJJ",
"JJJJJJJJJJJJJJ 7CFAAAAAAAAAAAAAG1JJJJJJJJJJJJJJJJJJJJJJJJJJJJJJJJJJJJJJJJJJJJJJJJJaGAAAAAAAAAAAAHs JJJJJJJJJJJJJJJ&&&&JJJJJJJJJJ",
"JJJJJJJJJJJJJJJJ;CSAAAAAAAAAAAAGc JJJJJJJJJJJJJJJJJJJJJJJJJJJJJJJJJJJJJJJJJJJJJJJ=ZSAAAAAAAAAAAGbXJJJJJJJJJJJJJJJJ&&&&&JJJJJJJJJ",
"JJJJJJJJJJJJJJJJJ2GAAAAAAAAAAAAAG9JJJJJJJJJJJJJJJJJJJJJJJJJJJJJJJJJJJJJJJJJJJJJJ fGAAAAAAAAAAAAG2JJJJJJJJJJJJJJJJJ&&&&&&JJJJJJJJ",
"JJJJJJJJJJJJJJJJJJiGAAAAAAAAAAAAGZ*JJJJJJJJJJJJJJJJJJJJJJJJJJJJJJJJJJJJJJJJJJJJJ5GAAAAAAAAAAAAFn.JJJJJJJJJJJJJJJJ&&&&&&&&JJJJJJJ",
"JJJJJJJJJJJJJJJJJJ@VSAAAAAAAAAAAAGx.JJJJJJJJJJJJJJJJJJJJJJJJJJJJJJJJJJJJJJJJJJJ%VGAAAAAAAAAAAAGiJJJJJJJJJJJJJJJJJ&&&&&&&&JJJJJJJ",
"JJJJJJJJJJJJJJJJJJJaGAAAAAAAAAAAAAGp JJJJJJJJJJJJJJJJJJJJJJJJJJJJJJJJJJJJJJJJJ.lGAAAAAAAAAAAAAG4JJJJJJJJ&&&&&&&&&&&&&&&&JJJJJJJJ",
"JJJJJJJJJJJJJJJJJJJ3GAAAAAAAAAAAAAAGeJJJJJJJJJJJJJJJJJJJJJJJJJJJJJJJJJJJJJJJJ sGAAAAAAAAAAAAAAG,JJJJJJ&&&&&&&&&&&&&&&&&&JJJJJJJJ",
"JJJJJJJJJJJJJJJJJJJ:GAAAAAAAAAAAAAASG8JJJJJJJJJJJJJJJJJJJJJJJJJJJJJJJJJJJJJJ yGAAAAAAAAAAAAAAAG<JJJJJ&&&&&&&&&&&&&&&&&&JJJJJJJJJ",
"JJJJJJJJJJJJJJJJJJJ1GAAAAAAAAAAAAAAAFG8JJJJJJJJJJJJJJJJJJJJJJJJJJJJJJJJJJJJ yHAAAAAAAAAAAAAAAAGwJJJJJ&&&&&&&&&&&&&&&&&JJJJJJJJJJ",
"JJJJJJJJJJJJJJJJJJJtGAAAAAAAAAAAAAAAAFGt JJJJJJJJJJJJJJJJJJJJJJJJJJJJJJJJJ.sHAAAAAAAAAAAAAAAAAGx JJJJJJ&&&&&&&&&&&&&&JJJJJJJJJJJ",
"JJJJJJJJJJJJJJJJJJ.bGAAAAAAAAAAAAAAAAAAHfoJJJJJJJJJJJJJJJJJJJJJJJJJJJJJJJ%zGAAAAAAAAAAAAAAAAAAAS1JJJJJJJ&&&&&&&&&&&&&JJJJJJJJJJJ",
"JJJJJJJJJJJJJJJJJJ6GAAAAAAAAAAAAAAAAAAAAGm>JJJJJJJJJJJJJJJJJJJJJJJJJJJJ 5CGAAAAAAAAAAAAAAAAAAAAGN@JJJJJJJ&&&&&&&&&&&JJJJJJJJJJJJ",
"JJJJJJJJJJJJJJJJJ%VGAAAAAAAAAAAAAAAAAAAAAGFa+JJJJJJJJJJJJJJJJJJJJJJJJJ;kGSAAAAAAAAAAAAAAAAAAAAAAGxoJJJJJJJ&&&&&&&&&&&JJJJJJJJJJJ",
"JJJJJJJJJJJJJJJJocGAAAAAAAAAAAAAAAAAAAAAAAAGVeOJJJJJJJJJJJJJJJJJJJJ ;dAGAAAAAAAAAAAAAAAAAAAAAAAAAHg.JJJJJJJ&&&&&&&&&&JJJJJJJJJJJ",
"JJJJJJJJJJJJJJJ.lGAAAAAAAAAAAAZAAAAAAAAAAAAAFGVu= JJJJJJJJJJJJJJ @7xFGSAAAAAAAAAAAAAAAAAAAAAAAAAAAGf.JJJJJJJ&&&&&&&&&&JJJJJJJJJJ",
"JJJJJJJJJJJJJJolHAAAAAAAAAAAAAAAAAAAAAAAAAAAAAGGFvu3*o     .@-3yzCGGAAAAAAAAAAAAAAAAAAAAAAAAAAAAAAAHd JJJJJJ&&&&&&&&&&&JJJJJJJJJ",
"JJJJJJJJJJJJJOzGAAAAAAAAAAAAAAAAAAAAAAAAAAAAAAZASGGGABbxxvbNVSGGGSAAAAAAAAAAAAAAAAAAAAAAAAAAAAAAAAAAHtJJJJJJJ&&&&&&&&&&&&&&&&JJJ",
"JJJJJJJJJJJJ gHAAAAAAAAAAAAAAAAAAAAAAAAAAAAAAAAAAAAASFGGGGGSSSAAAAAAAAAAAAAAAAAAAAAAAAAAAAAAAAAAAAAAFZ%JJJJJJ&&&&&&&&&&&&&&&&&&J",
"JJJJJJJJJJJJ1GAAAAAAAAAAAAAAAAAAAAAAAAAAAAAAAAAAAAAAAAAAAAAAAAAAAAAAAAAAAAAAAAAAAAAAAAAAAAAAAAAAAAAAAH8JJJJJJJ&&&&&&&&&&&&&&&&&J",
"JJJJJJJJJJJJwHAAAAAAAAAAAAAAAAAAAAAAAAAAAAAAAAAAAAAAAAAAAAAAAAAAAAAAAAAAAAAAAAAAAAAAAAAAAAAAAAAAAAAAAH8JJJJJJJ&&&&&&&&&&&&&&&&&&",
"JJJJJJJJJJJJ1HAAAAAAAAAAAAAAAAAAAAAAAAAAAAAAAAAAAAAAAAAAAAAAAAAAAAAAAAAAAAAAAAAAAAAAAAAAAAAAAAAAAAAAGC@JJJJJJJ&&&&&&&&&&&&&&&&&&",
"JJJJJJJJJJJJ gHAAAAAAAAAAAAAAAAAAAAAAAAAAAAAAAAAAAAAAAAAAAAAAAAAAAAAAAAAAAAAAAAAAAAAAAAAAAAAAAAAAAAAG8JJJJJJJJ&&&&&&&&&&&&&&&&&&",
"JJJJJJJJJJJJJOvGAAAAAAAAAAAAAAAAAAAAAAAAAAAAAAAAAAAAAAAAAAAAAAAAAAAAAAAAAAAAAAAAAAAAAAAAAAAAAAAAAAAGrJJJJJJJJJ&&&&&&&&&&&&&&&&&&",
"JJJJJJJJJJJJJJObGZAAAAAAAAAAAAAAAAAAAAAAAAAAAAAAAAAAAAAAAAAAAAAAAAAAAAAAAAAAAAAAAAAAAAAAAAAAAAAAAAHt JJJJJJJJJ&&&&&&&&&&&&&&&&&&",
"JJJJJJJJJJJJJJJ+bGAAAAAAAAAAAAAAAAAAAAAAAAAAAAAAAAAAAAAAAAAAAAAAAAAAAAAAAASGGGGSAAAAAAAAAAAAAAAAAHu JJJJJJJJJJ&&&&&&&&&&&&&&&&&&",
"JJJJJJJJJJJJJJJJ@nGAAAAAAAAAAAAAAAAGHGGGGGSAAAAAAAAAAAAAAAAAAAAAAAAAAAAAGGVlapkVHGZAAAAAAAAAAAAAHi JJJJJJJJJJJ&&&&&&&&&&&&&&&&&J",
"JJJJJJJJJJJJJJJJJ@nGAAAAAAAAAAAAAGGvt5130fZGAAAAAAAAAAAAAAAAAAAAAAAAAAAGN8OJJJJO8VGAAAAAAAAAAAAHi JJJJJJJJJJJJ&&&&&&&&&&&&&&&&&J",
"JJJJJJJJJJJJJJJJJJ+bGAAAAAAAAAAAGc< JJJJJJ$uSGAAAAAAAAAAAAAAAAAAAAAAASGaoJJJJJJJJ+gGAAAAAAAAAAGp JJJJJJJJJJJJJ&&&&&&&&&&&&&&&&JJ",
"JJJJJJJJJJJJJJJJJJJozHAAAAAAAZFGi.JJJJJJJJJJ1ZGAAAAAAAAAAAAAAAAAAAAAAGr JJJJJJJJJJ iGAAAAAAAAHp JJJJJJJJJJJJJ&&&&&&&&&&&&&&&&JJJ",
"JJJJJJJJJJJJJJJJJJJJ.fHAAAAAAGG9 JJJJJJJJJJJJ2FAAAAAAAAAAAAAAAAAAAAAHs JJJJJJJJJJJJ tHSAAAAAHi JJJJJJJJJJJJJJ&&&&&&&&&&&JJJJJJJJ",
"JJJJJJJJJJJJJJJJJJJJJ yGGAAAGV,JJJJJJJJJJJJJJJsGAAAAAAAAAAAAAAAAAAAGBOJJJJJJJJJJJJJJ tGAAAFHu JJJJJJJJJJJJJJ&&&&&&&&&&JJJJJJJJJJ",
"JJJJJJJJJJJJJJJJJJJJJJJ7CHHGk$JJJJJJJJJJJJJJJJ;FAAAAAAAAAAAAAAAAAAAGtJJJJJJJJJ&JJJJJJ eGGGGt JJJJJJJJJJJJJJJ&&&&&&&&&JJJJJJJJJJJ",
"JJJJJJJJJJJJJJJJJJJJJJJJ@ei1 JJJJJJJJJJJJJJJJJ.MGAAAAAAAAAAAAAAAAAAG,JJJJJJJJ&&&JJJJJJJ,fg<JJJJJJJJJJJJJJJJ&&&&&&&&&&JJJJJJJJJJJ",
"JJJJJJJJJJJJJJJJJJJJJJJJJJJJJJJJJJJJJJJJJJJJJJJzGAAAAAAAAAAAAAAAAASZ%JJJJJJJ&&&&&JJJJJJJJJJJJJJJJJJJJJJJJJ&&&&&&&&&&&JJJJJJJJJJJ",
"JJJJJJJJJJJJJJJJJJJJJJJJJJJJJJJJJJJJJJJJJJJJJJJgGAAAAAAAAAAAAAAAAASA%JJJJJJ&&&&&&&JJJJJJJJJJJJJJJJJJJJJJJJ&&&&&&&&&&&JJJJJJJJJJJ",
"JJJJJJJJJJJJJJJJJJJJJJJJJJJJJJJJJJJJJJJJJJJJJJJfGAAAAAAAAAAAAAAAAAAF;JJJJJJ&&&&&&&&JJJJJJJJJJJJJJJJJJJJJ&&&&&&&&&&&&&JJJJJJJJJJJ",
"JJJJJJJJJJJJJJJJJJJJJJJJJJJJJJJJJJJJJJJJJJJJJJJkGAAAAAAAAAAAAAAAAAAG:JJJJJ&&&&&&&&&&JJJJJJJJJJJJJJJJJJJ&&&&&&&&&&&&&&JJJJJJJJJJJ",
"JJJJJJJJJJJJJJJJJJJJJJJJJJJJJJJJJJJJJJJJJJJJJJJlGAAAAAAAAAAAAAAAAAAF;JJJJJ&&&&&&&&&&&&JJJJJJJJJJJJJJJJ&&&&&&&&&&&&&&&&JJJJJJJJJJ",
"JJJJJJJJJJJJJJJJJJJJJJJJJJJJJJJJJJJJJJJJJJJJJJJkFAAAAAAAAAAAAAAAAAAF*JJJJJ&&&&&&&&&&&&&&JJJJJJJJJJJ&&&&&&&&&&&&&&&&&&&&JJJJJJJJJ",
"JJJJJJJJJJJJJJJJJJJJJJJJJJJJJJJJJJJJJJJJJJJJJJJdGAAAAAAAAAAAAAAAAAFC$JJJJJ&&&&&&&&&&&&&&&&&JJJJJ&&&&&&&&&&&&&&&&&&&&&&&&JJJJJJJJ",
"JJJJJJJJJJJJJJJJJJJJJJJJJJJJJJJJJJJJJJJJJJJJJJJ8HAAAAAAAAAAAAAAAAAGc JJJJJ&&&&&&&&&&&&&&&&&&&&&&&&&&&&&&&&&&&&&&&&&&&&&&&JJJJJJJ",
"JJJJJJJJJJJJJJJJJJJJJJJJJJJJJJJJJJJJJJJJJJJJJJJoxHHGHGHGHGHGHHGHGHF1JJJJJJ&&&&&&&&&&&&&&&&&&&&&&&&&&&&&&&&&&&&&&&&&&&&&&&JJJJJJJ",
"JJJJJJJJJJJJJJJJJJJJJJJJJJJJJJJJJJJJJJJJJJJJJJJJX3tuuuuuuuuuyytuit;JJJJJJJ&&&&&&&&&&&&&&&&&&&&&&&&&&&&&&&&&&&&&&&&&&&&&&&JJJJJJJ",
"JJJJJJJJJJJJJJJJJJJJJJJJJJJJJJJJJJJJJJJJJJJJJJJJJJJJJJJJJJJJJJJJJJJJJJJJJJ&&&&&&&&&&&&&&&&&&&&&&&&&&&&&&&&&&&&&&&&&&&&&&JJJJJJJJ",
"JJJJJJJJJJJJJJJJJJJJJJJJJJJJJJJJJJJJJJJJJJJJJJJJJJJJJJJJJJJJJJJJJJJJJJJJJ&&&&&&&&&&&&&&&&&&&&&&&&&&&&&&&&&&&&&&&&&&&&&&JJJJJJJJJ",
"JJJJJJJJJJJJJJJJJJJJJJJJJJJJJJJJJJJJJJJJJJJJJJJJJJJJJJJJJJJJJJJJJJJJJJJJ&&&&&&&&&&&&&&&&&&&&&&&&&&&&&&&&&&&&&&&&&&&&&&JJJJJJJJJJ",
"JJJJJJJJJJJJJJJJJJJJJJJJJJJJJJJJJJJJJJJJJJJJJJJJJJJJJJJJJJJJJJJJJJJJJJ&&&&&&&&&&&JJJ&&&&&&&&&&&&&&&&&&&JJJJJ&&&&&&&&&JJJJJJJJJJJ",
"JJJJJJJJJJJJJJJJJJJJJJJJJJJJJJJJJJJJJJJJJJJJJJJJJJJJJJJJJJJJJJJJJJJJJJJ&&&&&&&&JJJJJJJ&&&&&&&&&&&&&&&&JJJJJJJ&&&&&&&JJJJJJJJJJJJ",
"JJJJJJJJJJJJJJJJJJJJJJJJJJJJJJJJJJJJJJJJJJJJJJJJJJJJJJJJJJJJJJJJJJJJJJJJ&&&&&&JJJJJJJJ&&&&&&&&&&&&&&&JJJJJJJJJ&&&&&JJJJJJJJJJJJJ",
"JJJJJJJJJJJJJJJJJJJJJJJJJJJJJJJJJJJJJJJJJJJJJJJJJJJJJJJJJJJJJJJJJJJJJJJJJ&&&JJJJJJJJJJJ&&&&&&&&&&&&&&JJJJJJJJJJ&&&JJJJJJJJJJJJJJ",
"JJJJJJJJJJJJJJJJJJJJJJJJJJJJJJJJJJJJJJJJJJJJJJJJJJJJJJJJJJJJJJJJJJJJJJJJJJJJJJJJJJJJJJJ&&&&&&&&&&&&&&JJJJJJJJJJJJJJJJJJJJJJJJJJJ",
"JJJJJJJJJJJJJJJJJJJJJJJJJJJJJJJJJJJJJJJJJJJJJJJJJJJJJJJJJJJJJJJJJJJJJJJJJJJJJJJJJJJJJJJ&&&&&&&&&&&&&&JJJJJJJJJJJJJJJJJJJJJJJJJJJ",
"JJJJJJJJJJJJJJJJJJJJJJJJJJJJJJJJJJJJJJJJJJJJJJJJJJJJJJJJJJJJJJJJJJJJJJJJJJJJJJJJJJJJJJJ&&&&&&&&&&&&&&JJJJJJJJJJJJJJJJJJJJJJJJJJJ",
"JJJJJJJJJJJJJJJJJJJJJJJJJJJJJJJJJJJJJJJJJJJJJJJJJJJJJJJJJJJJJJJJJJJJJJJJJJJJJJJJJJJJJJJ&&&&&&&&&&&&&&JJJJJJJJJJJJJJJJJJJJJJJJJJJ",
"JJJJJJJJJJJJJJJJJJJJJJJJJJJJJJJJJJJJJJJJJJJJJJJJJJJJJJJJJJJJJJJJJJJJJJJJJJJJJJJJJJJJJJJ&&&&&&&&&&&&&JJJJJJJJJJJJJJJJJJJJJJJJJJJJ",
"JJJJJJJJJJJJJJJJJJJJJJJJJJJJJJJJJJJJJJJJJJJJJJJJJJJJJJJJJJJJJJJJJJJJJJJJJJJJJJJJJJJJJJJJ&&&&&&&&&&&&JJJJJJJJJJJJJJJJJJJJJJJJJJJJ",
"JJJJJJJJJJJJJJJJJJJJJJJJJJJJJJJJJJJJJJJJJJJJJJJJJJJJJJJJJJJJJJJJJJJJJJJJJJJJJJJJJJJJJJJJJJ&&&&&&&&&JJJJJJJJJJJJJJJJJJJJJJJJJJJJJ",
"JJJJJJJJJJJJJJJJJJJJJJJJJJJJJJJJJJJJJJJJJJJJJJJJJJJJJJJJJJJJJJJJJJJJJJJJJJJJJJJJJJJJJJJJJJJJJJJJJJJJJJJJJJJJJJJJJJJJJJJJJJJJJJJJ"
};
