/* XPM */
static char *_b78f90a9d2241aff33b3e203bca64bf[] = {
/* columns rows colors chars-per-pixel */
"32 32 143 2 ",
"   c #225C1E821F5C",
".  c #22841EA61F80",
"X  c #22B61ECE1F9E",
"o  c #23211F302011",
"O  c #23A01FA0206C",
"+  c #242220172101",
"@  c #4EC23CA01454",
"#  c #52263EB21362",
"$  c #51603E5A14F2",
"%  c #516C3F7A1548",
"&  c #52B83F621554",
"*  c #537E3FE8157C",
"=  c #521040A415B0",
"-  c #543C407E15AC",
";  c #5536412615E8",
":  c #5858439E16BA",
">  c #63484BDC1968",
",  c #64444C821946",
"<  c #6A0851161B32",
"1  c #6D3853AA1C2A",
"2  c #6D0654181C26",
"3  c #6FD855CE1CCE",
"4  c #70AA56181CE4",
"5  c #7B4E5E501FA2",
"6  c #7C605F4D1FF8",
"7  c #7F6A617A20AA",
"8  c #8733676422A8",
"9  c #8A7169E62374",
"0  c #8ACD6A3E239C",
"q  c #8BC76AE023D2",
"w  c #8D586C572450",
"e  c #8F0571982616",
"r  c #9489717C2604",
"t  c #97D7740E26DC",
"y  c #9825741226DC",
"u  c #9ED779562768",
"i  c #9AB076B827C7",
"p  c #9B4176BA27C0",
"a  c #A2117C082986",
"s  c #A1A57DD828CE",
"d  c #A3497D5C29FE",
"f  c #A6957F622AA0",
"g  c #A6CF7FC42ACC",
"h  c #A35580E12B28",
"j  c #A7DB80AF2B18",
"k  c #A84980AF2B0E",
"l  c #A887810B2B3A",
"z  c #ABDB84172C38",
"x  c #AE5385C12CC2",
"c  c #AF4B86112CD6",
"v  c #B14187D52D78",
"b  c #B40589EF2DEE",
"n  c #B48F8A532E50",
"m  c #B58B8B872EB0",
"M  c #B8998D372F42",
"N  c #B9CB8E252F90",
"B  c #BA6C8EF52FD8",
"V  c #BD0790C33072",
"C  c #C05193233130",
"Z  c #C45395E930CA",
"A  c #C4D096903253",
"S  c #C7EB98E5331A",
"D  c #C7DD992C3337",
"F  c #C8759A9133A2",
"G  c #CB7B9B453324",
"H  c #CB599C393436",
"J  c #D0059F8D3552",
"K  c #D19B9FF93576",
"L  c #D20BA13335E6",
"P  c #D2E6A17635F9",
"I  c #D3FBA2753638",
"U  c #D485A28F365C",
"Y  c #D7B0A4D83712",
"T  c #D893A60B377C",
"R  c #DB1BA875384A",
"E  c #DE49AAD93914",
"W  c #DFE7AB733927",
"Q  c #E3BBADE53980",
"!  c #E279AD3939D8",
"~  c #E451AF4F3A8E",
"^  c #E511AEFF3A7C",
"/  c #E5ADAFA93AB4",
"(  c #E5C1B0053AC6",
")  c #E5FBB0753AEF",
"_  c #E7E9B2153B7A",
"`  c #E8D9B27D3B98",
"'  c #E99FB23B3B7E",
"]  c #E967B39F3BFC",
"[  c #EB0BB3EF3C0E",
"{  c #EC9FB4AF3C4C",
"}  c #EE77B6293CCC",
"|  c #EDEBB6BB3CFE",
" . c #EF02B69D3CF0",
".. c #F033B7AD3D4F",
"X. c #F3E3BA393D9A",
"o. c #F1F1B9793DE2",
"O. c #F4E3BB073E64",
"+. c #F630BBBD3E91",
"@. c #F68DBC263EB4",
"#. c #F6BFBC423EBD",
"$. c #F71FBC8C3ED5",
"%. c #F7BDBD063EFD",
"&. c #F84CBD833F2B",
"*. c #F819BECD3FAA",
"=. c #F8F2BDF33F45",
"-. c #F910BE713F65",
";. c #FA22BEFB3FA4",
":. c #FA7DBF083FA6",
">. c #FAA1BF3F3FB6",
",. c #F96BBF233FC4",
"<. c #FA28BF723FCA",
"1. c #FB36BFC83FEA",
"2. c #FB8ABFFD3FF8",
"3. c #FAA5C11F4048",
"4. c #FBD5C0E9404F",
"5. c #FB67C189407A",
"6. c #FBF1C19A4088",
"7. c #FCDDC101404E",
"8. c #FCEDC15C406C",
"9. c #FDFDC1F040A0",
"0. c #FEA9C22540AA",
"q. c #FC83C24D40BE",
"w. c #FCE2C26E40D2",
"e. c #FE11C3784128",
"r. c #FEB7C2CC40EB",
"t. c #FF9DC31240FF",
"y. c #FEECC3AD4136",
"u. c #FFF6C3C6413C",
"i. c #FF2DC51B41AE",
"p. c #FFEDC4A04187",
"a. c #FFFFC55141C0",
"s. c #FFFFC53141C8",
"d. c #FFFFC5EC41F7",
"f. c #FFFFC6F1424E",
"g. c #FFFFC7914282",
"h. c #FFFFC8C942E8",
"j. c #FFFFC97D4326",
"k. c #FFFFCAF9439E",
"l. c #FFFFCBCF43E2",
"z. c #FFFFCCC9443C",
"x. c #FFFFCF73451C",
"c. c #FFFFD0ED459E",
"v. c None",
/* pixels */
"v.v.v.v.v.v.v.v.v.v.v.v.v.& @ & v.v.v.v.v.v.v.v.v.v.v.v.v.v.v.v.",
"v.v.v.v.v.v.v.v.v.v.v.v./ o. .-.v v.v.v.v.v.v.v.v.v.v.v.v.v.v.v.",
"v.v.v.v.v.v.v.v.v.v.v.v.g.-.-.g.S v.v.v.v.v.v.v.v.v.v.v.v.v.v.v.",
"v.v.v.v.v.v.e v.v.v.v.4 g.O.O.2.! v.v.v.v.w c v.v.v.v.v.v.v.v.v.",
"v.v.v.v.v.) x.T v.v.v.) -.O.O.%.u.j v.v.f j.j.B v.v.v.v.v.v.v.v.",
"v.v.v.v.R u.O.u. .A ..u.%.%.%.O.O.u. . .u.O.O.g.V v.v.v.v.v.v.v.",
"v.v.v.P g.O.O.O.-.u.-.-.g.g.g.g.u.%.-.-.%.O.%.O.c.6 v.v.v.v.v.v.",
"v.v.v.8 g.%.O.%.O.O.u...c 5 3 9 V 2.u.O.O.%.O.u.E v.v.v.v.v.v.v.",
"v.v.v.v.a u.O.%.%.g.N v.v.v.v.v.v.v.P g.O.O.-./ v.v.v.v.v.v.v.v.",
"v.v.v.v.v.u.%.O.g.i v.v.v.v.v.v.v.v.v.n g.O.g.t v.v.v.v.v.v.v.v.",
"v.v.v.v.v.g.O.u.n v.v.v.v.v.v.v.v.v.v.v.P u.u.J v.v.v.v.v.v.v.v.",
"v.v.v.v.A u.-./ v.v.v.v.v.v.v.v.v.v.v.v.v.u.O.g.S v.v.v.v.v.v.v.",
"v./  .-.u.O.g.t v.v.v.v.v.v.v.v.v.v.v.v.v.Y u.O.u.u.g.N v.v.v.v.",
"v.u.-.-.O.O.g.: v.v.v.v.v.v.v.v.v.v.v.v.v.f u.O.O.O.2.Y v.v.v.v.",
"v.-.%.O.O.-.u.v.v.v.v.v.v.v.v.v.v.v.v.v.v.t g.-.O.%.u.P v.v.v.v.",
"v.u.O.%.-.O.g.& v.v.v.v.v.v.v.v.v.v.v.v.v.f g.O.O.-.u.Y v.v.v.v.",
"v.g.j.g.-.O.g.q v.v.v.v.v.v.v.v.v.v.v.v.v.K u.O.u.-.-.A v.v.v.v.",
"v.; 1 7  .2.-.E v.v.v.v.v.v.v.v.v.v.v.v.v.u.O.u.b v.v.v.v.v.v.v.",
"v.v.v.v.& 3.%.g.l v.v.v.v.v.v.v.v.v.v.v.S u.-.E v.v.v.v.o   v.v.",
"v.v.v.v.v.' -.O.g.w v.v.v.v.v.v.v.v.v.d g.O.u.G v.v.o o     v.v.",
"v.v.v.v.; u.%.%.%.g.i v.v.v.v.v.v.v.c g.O.O.-.u., v.+     v.v.v.",
"v.v.v.v. .-.O.%.O.%.g.) i < > 5 c  .u.O.O.%.O.-.3.# v.+     v.v.",
"v.v.v.N j.O.O.O.O.O.O.-.g.g.g.g.g.O.-.-.-.O.O.O.x.u v.v.        ",
"v.v.v.v./ u.%.%.g.u.u.u.O.%.O.O.O.u.-./ u.-.O.j.H v.v.v.        ",
"v.v.v.v.v.] j.2.9 v.& U 3.O.O.%.3.P v.v.3 %.z.G v.v.v.o       v.",
"v.v.v.v.v.v.h v.v.v.v.v.3.-.%.O.u.v.v.v.v.v.s v.v.v.v.    v.v.v.",
"v.v.v.v.v.v.v.v.v.v.v.v.O.-.O.%.%.v.v.o + v.v.v.v.v.      v.v.v.",
"v.v.v.v.v.v.v.v.v.v.v.v...g.u.g.o.v.v.o   o + +             v.v.",
"v.v.v.v.v.v.v.v.v.v.v.v.v.v.v.v.v.v.o                       v.v.",
"v.v.v.v.v.v.v.v.v.v.v.v.v.v.v.v.v.v.o   v.          v.    v.v.v.",
"v.v.v.v.v.v.v.v.v.v.v.v.v.v.v.v.v.v.v.v.v.v.      v.v.v.v.v.v.v.",
"v.v.v.v.v.v.v.v.v.v.v.v.v.v.v.v.v.v.v.v.v.v.      v.v.v.v.v.v.v."
};
