/* XPM */
static char *ce0808cd039c4218f30d323b054ca448[] = {
/* columns rows colors chars-per-pixel */
"64 64 56 1 ",
"  c #25041C33099D",
". c #289A1EF00A7B",
"X c #225C1E821F5C",
"o c #2BD421700B70",
"O c #326F26810D26",
"+ c #35A5292B0E02",
"@ c #39422BB80EE1",
"# c #3D4A2EE10FE6",
"$ c #23071F1B1FF9",
"% c #44CF349C11E2",
"& c #4826372A12AB",
"* c #497438291312",
"= c #52503EE31553",
"- c #560341DA164C",
"; c #59F844AD1714",
": c #5CA546C417F4",
"> c #5F1548A1187E",
", c #64BA4D0A1A0C",
"< c #68224FBE1AFC",
"1 c #6A9751741B86",
"2 c #71A257241D6E",
"3 c #75D659FD1E66",
"4 c #7A715D811F83",
"5 c #7D065FA52047",
"6 c #7F06610420B6",
"7 c #8378648921E0",
"8 c #8BE06B35241D",
"9 c #91946F322576",
"0 c #961272B0269B",
"q c #9B357711280E",
"w c #9E5978F4289E",
"e c #A25A7C1329BE",
"r c #A7C980A22B1E",
"t c #AB4583052C0B",
"y c #AF79887F2DDA",
"u c #B0D486EC2D43",
"i c #B5678AB22E93",
"p c #B88B8CFA2F50",
"a c #BA608E7C2FD5",
"s c #BDE3919F30E4",
"d c #C38F957E3229",
"f c #CD7F9D4434B8",
"g c #D587A35F36BB",
"h c #D992A6053795",
"j c #D966A69537C9",
"k c #DDDCA9E838E2",
"l c #E341ADE93A32",
"z c #E64AB0C23B29",
"x c #EBB7B4883C61",
"c c #F097B7A53D68",
"v c #F691BC2B3EB7",
"b c #F98CBE773F75",
"n c #FB0DBFD83FED",
"m c #FF26C4884180",
"M c #FFFFC9E04344",
"N c None",
/* pixels */
"NNNNNNNNNNNNNNNNNNNNNNNNNNNNNNNNNNNNNNNNNNNNNNNNNNNNNNNNNNNNNNNN",
"NNNNNNNNNNNNNNNNNNNNNNNNO;>>:;:,&NNNNNNNNNNNNNNNNNNNNNNNNNNNNNNN",
"NNNNNNNNNNNNNNNNNNNNNNN*mmMMMmmMM%NNNNNNNNNNNNNNNNNNNNNNNNNNNNNN",
"NNNNNNNNNNNNNNNNNNNNNNN8MvvvvvvvM,NNNNNNNNNNNNNNNNNNNNNNNNNNNNNN",
"NNNNNNNNNNNNNNNNNNNNNNNemvvvvvvvM,NNNNNNNNNNNNNNNNNNNNNNNNNNNNNN",
"NNNNNNNNNNNNNNNNNNNNNNNimvvvvvvvm1NNNNNNNNNNNNNNNNNNNNNNNNNNNNNN",
"NNNNNNNNNNNN%ONNNNNNNNNgbvvvvvvvM9NNNNNNNNN0iONNNNNNNNNNNNNNNNNN",
"NNNNNNNNNNNtMm2NNNNNNN%mvvvvvvvvngNNNNNNNNdMMx@NNNNNNNNNNNNNNNNN",
"NNNNNNNNNNpMvvm5NNNNNNgbvvvvvvvvvmeNNNNNogMvvbc#NNNNNNNNNNNNNNNN",
"NNNNNNNNNsMvvvvMeNNN%jmvvvvvvvvvvvMf<@+3xMvvvvbx@NNNNNNNNNNNNNNN",
"NNNNNNNNdMvvvvvvmxpfmmvvvvvvvvvvvvvnMbbmvvvvvvvmxONNNNNNNNNNNNNN",
"NNNNNNNdMvvvvvvvvvmmvvvvvvvvvvvvvvvvvvbvvvvvvvvvmzoNNNNNNNNNNNNN",
"NNNNNNiMvvvvvvvvvvvvvvvvvvvvvvvvvvvvvvvvvvvvvvvvvMaNNNNNNNNNNNNN",
"NNNNNNnvvvvvvvvvvvvvvvvvvbbmmmbvvvvvvvvvvvvvvvvvvmfNNNNNNNNNNNNN",
"NNNNNNwMvvvvvvvvvvvvvvvmMbzfdflbMmvvvvvvvvvvvvvvnv%NNNNNNNNNNNNN",
"NNNNNNNwMvvvvvvvvvvvvnmf3+NNNNNo,abMvvvvvvvvvvvvm-NNNNNNNNNNNNNN",
"NNNNNNNNtMvvvvvvvvvvMg=NNNNNNNNNNN+iMbvvvvvvvvvm,NNNNNNNNNNNNNNN",
"NNNNNNNNNzvvvvvvvvvM9NNNNNNNNNNNNNNN;cnvvvvvvvmeNNNNNNNNNNNNNNNN",
"NNNNNNNNNeMvvvvvvbm<NNNNNNNNNNNNNNNNNokMvvvvvvm%NNNNNNNNNNNNNNNN",
"NNNNNNNNN7Mvvvvvvm,NNNNNNNNNNNNNNNNNNN lnvvvvvn+NNNNNNNNNNNNNNNN",
"NNNNNNNNN0MvvvvvM8NNNNNNNNNNNNNNNNNNNNN#vbvvvvm7NNNNNNNNNNNNNNNN",
"NNNNNNNNNfnvvvvmdNNNNNNNNNNNNNNNNNNNNNNN5Mvvvvvv+NNNNNNNNNNNNNNN",
"NNNNNNNN<mvvvvvm%NNNNNNNNNNNNNNNNNNNNNNNNgnvvvvmkONNNNNNNNNNNNNN",
"NNNNNN#9bvvvvvmiNNNNNNNNNNNNNNNNNNNNNNNNN<Mvvvvvmve1,=oNNNNNNNNN",
"N-zvvcnMvvvvvvm-NNNNNNNNNNNNNNNNNNNNNNNNNNxbvvvvvvmMMmm=NNNNNNNN",
"%rMvvvvvvvvvvbzNNNNNNNNNNNNNNNNNNNNNNNNNNNimvvvvvvvvvvMqNNNNNNNN",
"#eMvvvvvvvvvvmpNNNNNNNNNNNNNNNNNNNNNNNNNNN4MvvvvvvvvvvmeNNNNNNNN",
"@wmvvvvvvvvvvM9NNNNNNNNNNNNNNNNNNNNNNNNNNN;mvvvvvvvvvvmeNNNNNNNN",
"@wMvvvvvvvvvvM4NNNNNNNNNNNNNNNNNNNNNNNNNNN*mvvvvvvvvvvmeNNNNNNNN",
"@wmvvvvvvvvvvm4NNNNNNNNNNNNNNNNNNNNNNNNNNN*MvvvvvvvvvvMeNNNNNNNN",
"@wMvvvvvvvvvvM9NNNNNNNNNNNNNNNNNNNNNNNNNNN:mvvvvvvvvvvMeNNNNNNNN",
"#emvvvvvvvvvvmpNNNNNNNNNNNNNNNNNNNNNNNNNNN7MvvvvvvvvvvmeNNNNNNNN",
"#eMvvvvvvvvvvbzNNNNNNNNNNNNNNNNNNNNNNNNNNNamvvvvvvvbnnMrNNNNNNNN",
"N3MMmMmbvvvvvvm;NNNNNNNNNNNNNNNNNNNNNNNNNNxbvvvvvmbxklz;NNNNNNNN",
"NN3tueuxmvvvvvmpNNNNNNNNNNNNNNNNNNNNNNNNN2mvvvvvMt@NNNNNN$NNNNNN",
"NNNNNNNNsmvvvvvn*NNNNNNNNNNNNNNNNNNNNNNNNjbvvvvMwNNNNNNNNXXNNNNN",
"NNNNNNNNNknvvvvmfNNNNNNNNNNNNNNNNNNNNNNN7MvvvvvxNNNNNNNNNXXXNNNN",
"NNNNNNNNN<MvvvvvM0NNNNNNNNNNNNNNNNNNNNN%bbvvvvmiNNNNNNNNXXXXNNNN",
"NNNNNNNNN.vvvvvvvm3NNNNNNNNNNNNNNNNNNN lbvvvvvMwNNNXXXXXXXXXNNNN",
"NNNNNNNNN+bvvvvvvvM4NNNNNNNNNNNNNNNNNokmvvvvvvmdNNNXXXXXXXXNNNNN",
"NNNNNNNNN8MvvvvvvvbMwNNNNNNNNNNNNNNN;cmvvvvvvvvn-NNNXXXXXXNNNNNN",
"NNNNNNNN%bvvvvvvvvvvMk:NNNNNNNNNNN@iMbvvvvvvvvvvx+NNNXXXXXNNNNNN",
"NNNNNNN@xbvvvvvvvvvvvmMg6@NNNNN@2dnMvvvvvvvvvvvvmzONNNXXXXXNNNNN",
"NNNNNN+xmvvvvvvvvvvvvvvbMnxgjkcbMmvvvvvvvvvvvvvvvMgNNNNXXXXXXXXN",
"NNNNNNiMvvvvvvvvvvvvvvvvvvbmnbbvvvvvvvvvvvvvvvvvvvM+NNNXXXXXXXXX",
"NNNNNN7MvvvvvvvvvvvvvvvvvvvvvvvvvvvvvvvvvvvvvvvvvmfNNNNXXXXXXXXX",
"NNNNNNNeMbvvvvvvvvvbvvvvvvvvvvvvvvvvvbmbvvvvvvvvMk NNNNXXXXXXXXX",
"NNNNNNNNeMvvvvvvvMnvmmvvvvvvvvvvvvvvmkdgmbvvvvvmk NNNNNXXXXXXXXX",
"NNNNNNNNNtMvvvvmx7@o*emvvvvvvvvvvvml-NNN;xmvvvml.NNNNNNXXXXXXXXN",
"NNNNNNNNNNqMbvMfoNNNNN,mvvvvvvvvvnk NNNNN.jMvmloNNNNNNNXXXXXXNNN",
"NNNNNNNNNNN3bMrNNNNNNNNumvvvvvvvvM,NNNNNNN gMg.NNNNNNNXXXXXNNNNN",
"NNNNNNNNNNNNo#NNNNNNNNN<MvvvvvvvvcNNNNXXNNNN:NNNNNNNNXXXXXXNNNNN",
"NNNNNNNNNNNNNNNNNNNNNNN-mvvvvvvvvcNNN$XXXNNNNNNNNNNNNXXXXXXNNNNN",
"NNNNNNNNNNNNNNNNNNNNNNN:MvvvvvvvbvNNNXXXXXNNNNNNNNNXXXXXXXXNNNNN",
"NNNNNNNNNNNNNNNNNNNNNNN;MvvvvvvvnxNNNXXXXXXX$NNNNXXXXXXXXXXXNNNN",
"NNNNNNNNNNNNNNNNNNNNNNNNzmmmmnmmMpNNNXXXXXXXXXXXXXXXXXXXXXXXNNNN",
"NNNNNNNNNNNNNNNNNNNNNNNNN%*&&*%%%NNNNXXXXXXXXXXXXXXXXXXXXXXXNNNN",
"NNNNNNNNNNNNNNNNNNNNNNNNNNNNNNNNNNNN$XXXXXXXXXXXXXXXXXXXXXXNNNNN",
"NNNNNNNNNNNNNNNNNNNNNNNNNNNNNNNNNNN$XXXXNNXXXXXXXXXNNNXXXXNNNNNN",
"NNNNNNNNNNNNNNNNNNNNNNNNNNNNNNNNNNNNXXXNNNNXXXXXXXNNNNNXXNNNNNNN",
"NNNNNNNNNNNNNNNNNNNNNNNNNNNNNNNNNNNNNNNNNNNNXXXXXXNNNNNNNNNNNNNN",
"NNNNNNNNNNNNNNNNNNNNNNNNNNNNNNNNNNNNNNNNNNNNXXXXXXNNNNNNNNNNNNNN",
"NNNNNNNNNNNNNNNNNNNNNNNNNNNNNNNNNNNNNNNNNNNNXXXXXXNNNNNNNNNNNNNN",
"NNNNNNNNNNNNNNNNNNNNNNNNNNNNNNNNNNNNNNNNNNNNNXXXXNNNNNNNNNNNNNNN"
};
