/* XPM */
static char *_c59f075c34842889aca6904d5fe3a64[] = {
/* columns rows colors chars-per-pixel */
"16 16 85 1 ",
"  c #0DAC0EC41A76",
". c #10BA10FE1ADA",
"X c #164E15001AA0",
"o c #1848169C1BB4",
"O c #22581E7F1F59",
"+ c #22921EB01F82",
"@ c #22A41EC01F94",
"# c #21D41E48202A",
"$ c #229E1EC81FD4",
"% c #22EF1F0C2009",
"& c #23661F7E20A6",
"* c #64CE4D1819CA",
"= c #68924FF41ABC",
"- c #720057541E92",
"; c #75E25A1A1E20",
": c #77945B5A1E8E",
"> c #6D4854602048",
", c #783A5C5820FE",
"< c #7BD45F8A2428",
"1 c #812562CC2108",
"2 c #89FF691C2320",
"3 c #8A0F696C233C",
"4 c #8F976DD224B8",
"5 c #905F6E1A232C",
"6 c #9407713825D6",
"7 c #952571DA260C",
"8 c #9A1175982748",
"9 c #9A8375F425F6",
"0 c #9E5F792E287C",
"q c #A4557DF02A36",
"w c #A82180DF2B0C",
"e c #AD2784632C2E",
"r c #B14786B32CFA",
"t c #B14987612CF0",
"y c #B31388992D9C",
"u c #B21F8A0B2E1C",
"i c #B4FB8A412E2E",
"p c #B7998C1F2EC6",
"a c #B7D590893068",
"s c #BC5990553032",
"d c #BDF993793138",
"f c #C09192EF310A",
"g c #C0FB9387313C",
"h c #C15B939F3144",
"j c #C6E798E53308",
"k c #CA5F9AA533AA",
"l c #CB439BB533F6",
"z c #D0939F53352C",
"x c #D3F3A16F35DE",
"c c #DC11A8B3384A",
"v c #DE03A97D388A",
"b c #DF8FAADF37F4",
"n c #E4FBAED939E2",
"m c #E8A3B1A33B42",
"M c #EA75B3013BB4",
"N c #ED29B4DF3B30",
"B c #EABFB3293BC8",
"V c #EEC1B6E33CFE",
"C c #EF47B7AB3D46",
"Z c #EC35B8553D78",
"A c #F1E1BB873E82",
"S c #F5E5BCC73EF6",
"D c #F777BDF53EBA",
"F c #F7EDBD333F18",
"G c #F9ADBDD93F42",
"H c #F943BECF3F9A",
"J c #FA73BEBF3F90",
"K c #FB85BFA53F44",
"L c #F6AFBF313FC4",
"P c #F5A7C1234066",
"I c #FBD5C111405C",
"U c #FD11C1144062",
"Y c #FD01C2EC40F2",
"T c #FFFFC3AD413A",
"R c #FFDAC4A2418E",
"E c #FFFFC6B14231",
"W c #FFFFC7D94298",
"Q c #FFE2C8B542E2",
"! c #FFFFC9EB4306",
"~ c #FFFFCA97437D",
"^ c #FFFFCCB44428",
"/ c #FFFFCDB34488",
"( c #FFFFCFAD4535",
") c #FFFFD05F456C",
"_ c None",
/* pixels */
"______qa________",
"______W/*_______",
"__sS:g~Wv3BC____",
"__~G^LgpB/G~4___",
"__y~c____w~x____",
"__gP______jZ____",
"6LWr_______~Wk__",
"e)W8_______W~n__",
"=sGz______3~r-__",
"__7/1_____Ab_.%_",
"__lYW0__;CYS>X%_",
"__YWFWYK~NG/5_&+",
"___i__IWi_<8__+_",
"______B~, o__%+_",
"_________%%%+++_",
"___________+____"
};
